<svg width="21" height="18" viewBox="0 0 21 18" fill="none" xmlns="http://www.w3.org/2000/svg">
<path d="M20.9949 9.59975L18.11 2.66297C18.167 2.50593 18.1999 2.33664 18.1999 2.15955C18.1999 1.36397 17.5725 0.71948 16.7994 0.71948C16.3313 0.71948 15.9184 0.956337 15.6643 1.31942H12.4353C12.1166 0.544251 11.3695 0 10.4996 0C9.62942 0 8.88301 0.544251 8.56466 1.32016H5.33572C5.08126 0.957079 4.66799 0.720223 4.19986 0.720223C3.42673 0.720223 2.80014 1.36471 2.80014 2.1603C2.80014 2.33738 2.83299 2.5063 2.89002 2.66371L0.00505311 9.59975H0C0 11.8525 1.88084 13.6798 4.20022 13.6798C6.52032 13.6798 8.40007 11.8525 8.40007 9.59975H8.39502L5.65046 3.00006H8.56466C8.72528 3.39062 8.99453 3.72251 9.33309 3.95566V14.6398H5.13324V15.5999C5.13324 16.92 6.1832 18 7.46669 18H13.5333C14.8168 18 15.8668 16.92 15.8668 15.5999V14.6398H11.6665V3.95529C12.0051 3.72177 12.2744 3.39024 12.435 3.00006H15.3488L12.6003 9.59975H12.5999V9.60012L12.5985 9.60347L12.6003 9.60421C12.6028 11.8551 14.4822 13.6798 16.8001 13.6798C19.1202 13.6798 21 11.8525 21 9.59975C21 9.60012 20.9949 9.60012 20.9949 9.59975ZM7.12597 9.59975H1.27411L3.79488 3.538C3.92302 3.57772 4.05873 3.59963 4.19949 3.59963C4.34026 3.59963 4.47669 3.57773 4.60519 3.53763L7.12597 9.59975ZM13.869 9.59975L16.3937 3.538C16.5222 3.5781 16.6583 3.6 16.7994 3.6C16.9405 3.6 17.0766 3.5781 17.2051 3.538L19.7263 9.59975H13.869Z" fill="#A8A8A8"/>
</svg>
